<svg width="1000" height="1000" viewBox="0 0 1000 1000" fill="none" xmlns="http://www.w3.org/2000/svg">
<path d="M614.745 180.109C618.554 173.375 621.001 165.957 621.943 158.278C623.848 142.77 619.513 127.14 609.893 114.827C600.274 102.515 586.157 94.5275 570.648 92.6233C555.14 90.7191 539.51 95.0536 527.197 104.673C514.885 114.293 506.898 128.41 504.993 143.919C504.051 151.598 504.629 159.387 506.697 166.842C508.764 174.298 512.28 181.273 517.043 187.369C521.807 193.466 527.724 198.565 534.458 202.375C541.191 206.184 548.61 208.63 556.289 209.573C563.968 210.516 571.757 209.937 579.213 207.87C586.668 205.802 593.643 202.287 599.74 197.523C605.836 192.76 610.935 186.843 614.745 180.109Z" fill="#2C3E50"/>
<path fill-rule="evenodd" clip-rule="evenodd" d="M198.43 130.537C162.948 140.712 142.432 177.724 152.606 213.206L357.16 926.57C367.334 962.052 404.346 982.568 439.829 972.394L802.279 868.463C837.761 858.288 858.277 821.276 848.103 785.794L643.549 72.4303C633.375 36.948 596.363 16.432 560.88 26.6063L198.43 130.537ZM614.188 198.804C626.204 186.021 632.951 169.172 633.08 151.629C633.209 134.082 626.708 117.134 614.878 104.175C603.048 91.2154 586.76 83.2009 569.275 81.7346C551.789 80.2683 534.394 85.4584 520.571 96.2664C506.748 107.074 497.515 122.703 494.72 140.026C491.925 157.349 495.773 175.089 505.496 189.696C515.219 204.303 530.098 214.701 547.158 218.808C564.215 222.915 582.193 220.431 597.497 211.854C597.763 212.316 598.053 212.76 598.386 213.199L634.292 259.157C636.041 261.397 638.608 262.85 641.428 263.198C644.248 263.545 647.091 262.758 649.331 261.009C651.57 259.261 653.024 256.694 653.371 253.874C653.718 251.054 652.931 248.211 651.182 245.971L615.276 200.013C614.944 199.583 614.581 199.179 614.188 198.804Z" fill="#2C3E50"/>
</svg>
